PathFileType	4	(X/Y/Z)	walk-thru1-2-TP.trc
DataRate	CameraRate	NumFrames	NumMarkers	Units	OrigDataRate	OrigDataStartFrame	OrigNumFrames
120.00	120.00	       4	60	mm	120.00	111	       441
Frame#	Time	Top.Head			Front.Head			Rear.Head			Jaw			C7			R.Clavicle			L.Clavicle			R.Shoulder			L.Shoulder			R.Scapula			L.Scapula			R.Scap.Inf			R.Biceps.Lateral			R.Elbow			R.Elbow.Medial			R.Forearm			R.Ulna			R.Radius			R.Wrist			R.Thumb.M1			R.Thumb.M2			R.Thumb.M3			R.Finger3.M1			R.Finger3.M2			R.Finger3.M3			L.Biceps.Lateral			L.Elbow			L.Elbow.Medial			L.Forearm			L.Ulna			L.Radius			L.Wrist			L.Thumb.M1			L.Thumb.M2			L.Thumb.M3			L.Finger3.M1			L.Finger3.M2			L.Finger3.M3			V.Sacral			R.ASIS			L.ASIS			R.Thigh			R.Thigh.Front			R.Knee			R.Knee.Medial			R.Shank			R.Ankle			R.Ankle.Medial			R.Heel			R.Toe			R.MedFoot			L.Thigh			L.Knee			L.Knee.Medial			L.Shank			L.Ankle			L.Ankle.Medial			L.Heel			L.Toe			L.MedFoot			V_mid_ASIS			V_R_Knee_JC			V_L_Knee_JC			V_R_Elbow_JC			V_L_Elbow_JC			V_R_Ankle_JC			V_L_Ankle_JC			V_R_Wrist_JC			V_L_Wrist_JC			V_R_ScaTrpz_1stMC_JC			V_R_1stMC_1stPP_JC			V_R_1stPP_1stDP_JC			V_R_LunCap_3rdMC_JC			V_R_3rdMC_3rdPP_JC			V_R_3rdPP_3rdMP_JC			V_R_3rdMP_3rdDP_JC			V_L_ScaTrpz_1stMC_JC			V_L_1stMC_1stPP_JC			V_L_1stPP_1stDP_JC			V_L_LunCap_3rdMC_JC			V_L_3rdMC_3rdPP_JC			V_L_3rdPP_3rdMP_JC			V_L_3rdMP_3rdPP_JC			V_ROOT_JC			V_R_Hip_JC			V_L_Hip_JC			V_R_GlenHum_JC			V_L_GlenHum_JC			V_ForeHead_Ctr			V_Vertex			V_Sagit_Lambdoid_Suture			V_R_FrontoTemp			V_L_FrontoTemporal			V_R_ParietalOccip			V_L_ParietalOcciptal			V_R_Temporal			V_L_Temporal			V_mid_FrontRearHead			V_mid_RLGlenHumCtrs			V_C7_vert			V_C1_vert			V_Mid_Hip			
		X1	Y1	Z1	X2	Y2	Z2	X3	Y3	Z3	X4	Y4	Z4	X5	Y5	Z5	X6	Y6	Z6	X7	Y7	Z7	X8	Y8	Z8	X9	Y9	Z9	X10	Y10	Z10	X11	Y11	Z11	X12	Y12	Z12	X13	Y13	Z13	X14	Y14	Z14	X15	Y15	Z15	X16	Y16	Z16	X17	Y17	Z17	X18	Y18	Z18	X19	Y19	Z19	X20	Y20	Z20	X21	Y21	Z21	X22	Y22	Z22	X23	Y23	Z23	X24	Y24	Z24	X25	Y25	Z25	X26	Y26	Z26	X27	Y27	Z27	X28	Y28	Z28	X29	Y29	Z29	X30	Y30	Z30	X31	Y31	Z31	X32	Y32	Z32	X33	Y33	Z33	X34	Y34	Z34	X35	Y35	Z35	X36	Y36	Z36	X37	Y37	Z37	X38	Y38	Z38	X39	Y39	Z39	X40	Y40	Z40	X41	Y41	Z41	X42	Y42	Z42	X43	Y43	Z43	X44	Y44	Z44	X45	Y45	Z45	X46	Y46	Z46	X47	Y47	Z47	X48	Y48	Z48	X49	Y49	Z49	X50	Y50	Z50	X51	Y51	Z51	X52	Y52	Z52	X53	Y53	Z53	X54	Y54	Z54	X55	Y55	Z55	X56	Y56	Z56	X57	Y57	Z57	X58	Y58	Z58	X59	Y59	Z59	X60	Y60	Z60	

111	0.917	-566.40082	94.92907	1569.69824	-463.39413	84.02384	1471.41687	-676.74854	98.95661	1487.24329	-491.85031	70.78088	1330.29431	-692.63751	81.51962	1378.08313	-615.44775	-35.36528	1292.42395	-588.52008	178.47368	1295.18005	-670.95160	-108.37650	1288.74951	-632.95306	273.72537	1294.79358	-746.01953	-2.85739	1302.40759	-734.31409	178.87283	1299.64856	-790.38367	14.78656	1219.30054	-656.91455	-164.19536	1149.16479	-692.92896	-185.93184	989.04877	-715.66028	-112.50565	971.44635	-611.23804	-181.33324	916.63574	-635.42291	-206.06619	830.77527	-565.60529	-162.66937	788.71088	-567.00580	-202.72798	755.19519	-538.40692	-163.68129	737.74854	-527.50641	-145.33293	702.79321	-517.60266	-135.97429	664.25287	-544.99939	-215.38654	679.71204	-542.99072	-194.51067	630.49084	-555.65839	-174.44415	595.87524	-640.92426	335.85825	1149.54224	-688.55829	349.45602	1004.18915	-717.58234	273.24222	997.94830	-604.43915	327.12686	942.05927	-612.41461	361.45404	849.18018	-563.40387	299.50235	809.13232	-551.50732	348.22137	783.12292	-530.63708	305.53613	774.00934	-520.00635	281.67661	737.33563	-514.25177	270.71918	687.24103	-521.48944	346.33173	699.28680	-518.53778	331.46524	659.59546	-532.56067	295.69202	629.16083	-801.89264	84.38310	913.30414	-611.86359	-78.54697	970.00269	-609.20862	237.93102	961.54498	-582.09882	-119.45290	582.77209	-504.50049	-60.97619	490.18954	-561.70148	-91.89529	434.71408	-535.62305	16.93109	432.23593	-661.14349	-33.57407	289.80713	-855.22797	-28.85145	175.78781	-817.76337	54.49146	169.61441	-906.18378	36.08450	188.15250	-775.42273	-28.64255	66.73368	-784.35974	19.46080	106.97446	-607.21326	257.13309	582.74274	-575.28778	222.75473	449.04260	-560.02814	100.59503	436.88492	-569.82190	160.00441	253.83832	-633.84552	178.25958	63.36723	-624.77625	88.34391	83.46823	-696.52521	129.61217	41.12083	-488.91415	136.63300	38.49963	-548.75208	106.16916	62.59065																																																																																																																															
112	0.925	-561.01617	95.50877	1570.01184	-457.74158	84.97237	1472.60828	-670.76508	99.74125	1487.20581	-486.20648	71.22421	1330.95398	-686.02362	81.39110	1378.04822	-609.77161	-35.54081	1291.91589	-583.09869	179.07536	1296.67029	-665.61792	-107.30125	1288.59314	-627.57037	274.71701	1295.10217	-739.99316	-2.36557	1303.19287	-728.49457	180.01747	1300.16870	-784.16101	16.13423	1220.17297	-651.82935	-163.43867	1149.14502	-690.11353	-185.09987	989.72382	-712.91956	-111.07893	973.09961	-609.23602	-180.91200	916.43494	-634.44934	-206.12466	830.49622	-565.53955	-162.37457	787.21851	-566.98352	-202.79320	754.28351	-538.19202	-163.07652	736.83514	-527.75385	-144.89664	702.05121	-520.90424	-135.34232	661.10815	-546.38953	-215.19795	678.13293	-544.82892	-194.56213	628.29968	-557.02612	-173.15012	595.36707	-635.54712	337.34866	1150.46619	-682.43665	350.90216	1004.69403	-711.23737	274.16983	998.37164	-598.87463	327.86252	942.61774	-606.29565	361.75693	849.58990	-555.56573	301.00409	810.72260	-544.59247	348.99451	784.79199	-524.27496	306.18442	774.94989	-511.45245	283.47784	738.57666	-507.38144	272.32687	688.05756	-514.05145	347.13605	699.90802	-512.39349	332.67255	661.09912	-524.65363	296.94638	629.92389	-796.66357	84.92797	914.19189	-607.16272	-77.70187	970.10620	-603.78986	238.13826	961.50574	-574.35999	-119.90342	584.06458	-493.00488	-60.76948	493.02298	-551.50812	-91.20107	436.69101	-524.46979	18.79023	433.99179	-649.03967	-34.74634	290.13123	-842.73169	-28.61963	175.91315	-804.71478	54.80341	170.40012	-894.09729	36.78733	187.37198	-758.47321	-29.32860	68.46261	-771.27942	20.65579	109.11789	-602.38257	256.92767	582.31512	-573.63940	222.51297	448.20758	-558.26465	100.25907	437.34378	-569.00092	159.37692	253.57950	-633.56342	178.14798	63.12949	-625.18750	88.15619	83.34712	-696.64795	129.47473	41.11761	-489.02176	136.81413	38.63103	-548.75208	106.16916	62.59065																																																																																																																															
113	0.933	-555.67682	96.03136	1570.80005	-452.80707	84.92049	1472.59985	-665.22418	99.74226	1487.26001	-480.52060	72.08221	1331.34558	-681.17218	82.49167	1378.07605	-603.86597	-34.74742	1292.35437	-577.75800	179.17126	1296.78430	-660.40863	-106.49524	1288.87500	-620.70032	275.65009	1296.05969	-734.54993	-1.84871	1302.78149	-722.01740	180.04028	1300.61060	-778.50342	16.94268	1220.21960	-647.55548	-164.02704	1149.18311	-686.81323	-184.53040	990.53503	-709.44781	-110.53232	973.38922	-606.67273	-181.56467	915.94006	-632.92920	-206.10785	830.81348	-565.42059	-161.79147	786.49475	-567.34119	-202.64200	752.67609	-539.39966	-163.33923	735.24243	-528.56775	-145.73929	701.24957	-521.58185	-134.92940	659.70520	-547.00507	-214.86574	676.84692	-547.45184	-194.10953	627.45209	-559.94995	-172.15683	594.44641	-629.76941	337.49335	1150.64331	-676.33301	351.18649	1005.80493	-705.29376	275.23364	998.57153	-592.25842	328.96344	943.14362	-599.27057	363.21863	850.50879	-547.43524	302.61487	812.30701	-538.53766	350.96744	784.92676	-516.65314	307.75198	776.55511	-504.65179	284.14920	739.87756	-500.27426	273.58041	690.04443	-506.54556	348.75272	701.15503	-504.35889	333.53571	661.36719	-515.26691	298.19858	631.63287	-791.67133	85.57578	914.48358	-601.11749	-77.15151	970.35388	-598.18823	238.02634	961.78119	-567.75067	-119.47446	585.29248	-482.82141	-59.84622	495.25687	-540.41693	-91.66087	438.13385	-514.96631	19.54757	436.94504	-636.29938	-34.68467	291.74207	-829.22943	-28.23499	175.19379	-792.42401	55.58799	170.56854	-881.16949	37.41581	185.49571	-742.37122	-27.40696	69.08462	-756.56030	21.19357	110.00810	-597.68872	256.37354	582.44598	-572.66925	222.78481	447.85419	-557.88464	99.09449	437.39893	-568.26971	159.61140	253.64757	-633.86188	177.97035	63.29785	-625.18750	88.15619	83.34712	-696.50104	129.60089	41.07046	-488.99298	136.72440	38.41874	-548.64886	106.12584	62.39196																																																																																																																															
114	0.942	-549.49042	96.74248	1571.35571	-446.58197	86.14407	1473.00769	-659.56567	100.77814	1487.76404	-474.64117	72.70598	1332.00708	-675.77429	81.90630	1378.68933	-598.58740	-34.37657	1291.94128	-571.95178	180.01617	1296.40747	-654.33411	-106.66756	1288.73511	-616.06274	276.69553	1296.65784	-728.44989	0.26416	1302.90515	-716.77240	180.96860	1301.68579	-773.60687	17.25953	1221.27112	-642.93579	-163.55199	1149.40320	-683.46771	-184.39641	991.09290	-707.46210	-110.30106	973.97668	-604.68903	-180.59216	915.21503	-632.61243	-205.44258	831.04645	-565.07849	-161.64842	784.79321	-567.55255	-202.52472	751.52930	-539.58521	-163.21895	733.47961	-528.97546	-145.54530	698.27338	-523.26031	-134.60503	658.00531	-548.04633	-213.93246	675.83698	-548.63135	-193.04979	625.57953	-564.93115	-171.77579	592.74835	-624.57910	338.27243	1151.30701	-671.22461	353.00867	1006.45544	-698.07391	277.44455	998.29291	-585.88745	329.59390	944.30676	-592.99927	364.27490	851.14404	-543.33862	302.70535	811.79480	-530.98779	352.04599	786.03217	-510.78217	308.11411	777.10083	-498.43884	284.37637	741.39386	-492.46030	274.02444	691.08844	-500.26978	348.55402	701.38580	-497.43939	334.32065	662.82892	-508.85355	297.48419	632.43707	-786.10858	85.26431	914.87274	-596.06561	-76.37276	971.22772	-593.30438	240.25130	961.29657	-556.00378	-118.40189	586.39722	-472.90799	-60.12836	497.14990	-529.77753	-90.81711	439.69455	-503.78265	20.47988	438.43289	-624.39648	-34.51448	292.45383	-815.90338	-28.14824	174.43347	-778.52747	55.67360	169.94423	-867.73969	36.31394	183.25719	-725.85522	-26.30400	68.06194	-741.99622	22.98868	110.29401	-594.68762	257.22897	582.51868	-569.58496	221.76813	447.60297	-558.54132	99.97215	436.50153	-567.76111	159.47620	253.54265	-633.83679	177.43584	63.17197	-625.36145	87.86651	83.64906	-696.51068	129.48053	41.10931	-488.96817	136.62907	38.49321	-548.56494	106.15228	62.34930																																																																																																																															
